<svg width="81" height="80" viewBox="0 0 81 80" fill="none" xmlns="http://www.w3.org/2000/svg">
<path opacity="0.3" d="M80.5 40C80.5 62.0914 62.5914 80 40.5 80C18.4086 80 0.5 62.0914 0.5 40C0.5 17.9086 18.4086 0 40.5 0C62.5914 0 80.5 17.9086 80.5 40ZM11.4071 40C11.4071 56.0675 24.4325 69.0929 40.5 69.0929C56.5675 69.0929 69.5929 56.0675 69.5929 40C69.5929 23.9325 56.5675 10.9071 40.5 10.9071C24.4325 10.9071 11.4071 23.9325 11.4071 40Z" fill="#2F2E30"/>
<circle cx="40.5" cy="40" r="29" fill="black"/>
<path d="M40.9275 38.1456V38.6456L41.4275 38.6456C42.0912 38.6456 42.7386 38.8514 43.2806 39.2346C43.8226 39.6178 44.2324 40.1596 44.4537 40.7853C44.4723 40.8382 44.4804 40.8942 44.4774 40.9501C44.4744 41.0062 44.4604 41.0611 44.4362 41.1117C44.412 41.1623 44.3781 41.2077 44.3363 41.2452C44.2946 41.2827 44.2459 41.3117 44.193 41.3303C44.1401 41.349 44.084 41.3571 44.0279 41.3541C43.9719 41.3511 43.917 41.3371 43.8664 41.3129C43.7641 41.2641 43.6855 41.1766 43.6477 41.0697L43.6477 41.0694C43.4853 40.6104 43.1845 40.213 42.7869 39.9319C42.3893 39.6509 41.9143 39.5 41.4273 39.5001L40.9275 39.5003V40.0001V43.7092V44.2092H41.4275C42.2786 44.2092 43.0948 44.5473 43.6966 45.1491C44.2984 45.7509 44.6365 46.5671 44.6365 47.4182C44.6365 48.2693 44.2984 49.0856 43.6966 49.6874C43.0948 50.2892 42.2786 50.6273 41.4275 50.6273H40.9275V51.1273V51.5545H40.0729V51.1273V50.6273L39.5729 50.6273C38.9092 50.6273 38.2618 50.4215 37.7198 50.0383C37.1779 49.6551 36.768 49.1133 36.5467 48.4876L36.5469 48.4875L36.5418 48.4744C36.5213 48.4211 36.5116 48.3642 36.5134 48.3071C36.5153 48.25 36.5285 48.1939 36.5524 48.142C36.5763 48.0901 36.6104 48.0435 36.6526 48.005C36.6948 47.9665 36.7443 47.9369 36.7982 47.9178C36.852 47.8988 36.9092 47.8908 36.9662 47.8942C37.0232 47.8976 37.079 47.9125 37.1302 47.9378C37.1814 47.9632 37.2269 47.9986 37.2642 48.0419C37.3015 48.0851 37.3297 48.1355 37.3472 48.1898L37.3495 48.1969L37.352 48.2039C37.6765 49.1186 38.548 49.7728 39.5729 49.7728H40.0729V49.2728V45.5637V45.0637H39.5729C38.7218 45.0637 37.9056 44.7256 37.3038 44.1238C36.702 43.522 36.3639 42.7058 36.3639 41.8547C36.3639 41.0036 36.702 40.1873 37.3038 39.5855C37.9056 38.9837 38.7218 38.6456 39.5729 38.6456H40.0729V38.1456V37.7184H40.9275V38.1456ZM40.0729 40.0001V39.5001H39.5729C38.9485 39.5001 38.3496 39.7482 37.908 40.1898C37.4665 40.6313 37.2184 41.2302 37.2184 41.8547C37.2184 42.4791 37.4665 43.078 37.908 43.5196C38.3496 43.9611 38.9485 44.2092 39.5729 44.2092H40.0729V43.7092V40.0001ZM40.9275 49.2728V49.7728H41.4275C42.0519 49.7728 42.6508 49.5247 43.0924 49.0831C43.5339 48.6416 43.782 48.0427 43.782 47.4182C43.782 46.7938 43.5339 46.1949 43.0924 45.7533C42.6508 45.3118 42.0519 45.0637 41.4275 45.0637H40.9275V45.5637V49.2728Z" fill="#FAFAFA" stroke="#FAFAFA"/>
<path d="M47.7695 32.5772L48.0001 32.8203C49.8981 34.821 51.4858 37.0948 52.7105 39.5658L52.7115 39.5677C53.9873 42.1703 54.7037 44.8133 54.5867 47.13L54.5867 47.1301C54.4723 49.3912 53.5716 51.3572 51.5218 52.8059L51.5218 52.806C49.4129 54.296 45.9467 55.3335 40.5354 55.3335C35.1198 55.3335 31.6397 54.3141 29.5132 52.8421L29.5129 52.842C27.4494 51.4119 26.5376 49.472 26.4101 47.2374L47.7695 32.5772ZM47.7695 32.5772L47.457 32.698M47.7695 32.5772L47.457 32.698M47.457 32.698C43.1083 34.3797 37.8707 34.3797 33.5219 32.6998L33.3417 33.1662L32.9752 32.8262C31.1573 34.7856 29.4657 37.1897 28.251 39.6928L28.2509 39.6929M47.457 32.698L28.2509 39.6929M28.2509 39.6929C26.9804 42.3123 26.2784 44.9432 26.4101 47.2371L28.2509 39.6929ZM50.3428 26.1814C50.7832 26.3992 51.1642 26.6076 51.4775 26.7943L48.3457 31.3725L48.114 31.7111L48.4009 32.0044C50.3394 33.9861 52.1697 36.5163 53.4805 39.1919C54.7935 41.8721 55.5679 44.6624 55.441 47.1735C55.3151 49.6637 54.3054 51.8862 52.0163 53.5035C49.7051 55.1363 46.0382 56.1881 40.5364 56.1881C35.0332 56.1881 31.3544 55.1551 29.028 53.5441C26.7245 51.9489 25.6991 49.7543 25.558 47.2856C25.4157 44.7951 26.1758 42.0152 27.4835 39.3201C28.7889 36.6299 30.6229 34.0598 32.5812 31.9992L32.8589 31.7071L32.6323 31.3737L29.5225 26.7979C29.6798 26.7052 29.8536 26.6074 30.043 26.5065L30.043 26.5065L30.0447 26.5056C30.2353 26.4031 30.4408 26.2977 30.6614 26.1901L30.8573 26.0946C33.1034 25.024 36.6645 23.8094 40.5364 23.8094C44.4385 23.8094 47.9975 25.0428 50.2165 26.12L50.3412 26.1805C50.3417 26.1808 50.3423 26.1811 50.3428 26.1814ZM49.7117 27.8618L50.2968 27.0063L49.2631 27.0808C46.6696 27.2675 43.6003 27.8748 40.6554 28.7274C38.6714 29.3005 36.4387 29.2193 34.3339 28.831C33.8046 28.7329 33.279 28.6161 32.758 28.4808L31.4726 28.1471L32.2188 29.2457L33.9991 31.8671L34.091 32.0024L34.245 32.0572C38.1692 33.4543 42.7996 33.4542 46.7245 32.0591L46.5571 31.588L46.9698 31.8703L49.7117 27.8618ZM34.4877 27.9904L34.4881 27.9905C36.523 28.3653 38.6079 28.4298 40.4168 27.9058L40.4175 27.9056C42.3859 27.3321 44.388 26.8811 46.4122 26.5552L46.4768 25.5828C44.7353 25.0584 42.6905 24.664 40.5354 24.664C37.2536 24.664 34.2063 25.5778 32.08 26.4803L32.2754 26.9406L32.1328 27.4198C32.8897 27.645 33.6821 27.8413 34.4877 27.9904Z" fill="#FAFAFA" stroke="#FAFAFA"/>
</svg>
